PathFileType	4	(X/Y/Z)	C:/Users/beibeiliu/ov580/test_trc/User1\sequence.32_training_dense_right.trc
DataRate	CameraRate	NumFrames	NumMarkers	Units	OrigDataRate	OrigDataStartFrame	OrigNumFrames
120	120	8	19	mm	120	169	224
Frame#	Time	ThumbCMC			ThumbMCP			ThumbIP			ThumbTip			IndexMCP			IndexPIP			IndexTip			MiddleMCP			MiddlePIP			MiddleTip			RingMCP			RingPIP			RingTip			PinkyMCP			PinkyPIP			PinkyTip			BackHand1			BackHand2			BackHand3	
		X0	Y0	Z0	X1	Y1	Z1	X2	Y2	Z2	X3	Y3	Z3	X4	Y4	Z4	X5	Y5	Z5	X6	Y6	Z6	X7	Y7	Z7	X8	Y8	Z8	X9	Y9	Z9	X10	Y10	Z10	X11	Y11	Z11	X12	Y12	Z12	X13	Y13	Z13	X14	Y14	Z14	X15	Y15	Z15	X16	Y16	Z16	X17	Y17	Z17	X18	Y18	Z18	
168	1.4	243.565	-19.132	60.0453	239.914	-1.78711	36.0835	240.685	10.594	13.4781	242.189	24.5237	-2.00144	222.154	-42.5558	-21.6351	214.818	-48.0224	-50.0825	208.466	-51.6693	-73.6502	203.691	-72.3858	-23.5588	189.438	-76.3026	-47.4661	169.343	-82.2691	-71.8146	171.354	-77.9082	-7.48224	143.563	-52.9062	-4.81396	153.072	-36.214	23.1544	158.168	-83.6165	15.824	147.003	-58.1002	17.7353	155.732	-35.7578	37.3784	216.144	-87.1764	38.088	228.622	-86.1758	67.1237	239.959	-59.1808	47.1674	
169	1.40833	242.885	-20.3979	60.0299	243.003	0.727405	37.4595	242.531	12.5509	15.1316	246.661	30.1472	-0.245166	219.735	-45.7124	-26.1592	216.115	-45.1661	-46.8864	210.287	-48.7453	-71.6755	206.175	-71.9045	-23.9835	192.981	-75.9073	-52.2036	176.003	-81.7945	-76.6235	177.316	-79.4321	-9.49395	146.682	-60.0211	-15.7177	143.902	-38.5353	10.7289	161.696	-89.0871	13.7582	143.841	-71.9871	8.71762	146.472	-37.8601	21.2799	216.71	-88.0696	36.9665	230.176	-82.632	72.1108	240.105	-57.2225	47.5653	
170	1.41667	240.685	-21.0686	56.8201	242.659	2.92253	37.9422	243.293	15.4057	11.4536	242.341	27.6081	0.716861	220.89	-44.1702	-21.8853	215.252	-45.9047	-45.2995	208.337	-50.2386	-76.2304	205.99	-74.5111	-23.0045	195.89	-76.0063	-53.0285	179.609	-83.2982	-78.3188	182.99	-81.9393	-10.7779	154.874	-73.2302	-24.7831	133.884	-48.8828	-7.66548	167.691	-94.5343	15.151	144.467	-81.3787	2.59429	131.431	-52.0406	5.10762	215.599	-86.3261	38.3907	230.687	-83.8019	71.0983	239.651	-57.8293	49.041	
171	1.425	242.004	-17.948	56.7092	239.499	0.280575	38.9822	239.065	12.864	12.0384	241.859	28.6312	-0.467857	220.733	-43.2983	-23.773	214.301	-45.8363	-47.6151	206.79	-48.8249	-74.0764	206.897	-73.8247	-25.9451	196.51	-79.0299	-51.0435	184.681	-84.8845	-78.339	185.036	-88.1123	-7.68501	158.959	-79.7464	-31.0568	130.404	-62.3393	-27.0812	169.771	-99.6933	15.0065	150.742	-97.3481	2.11093	127.57	-74.967	-11.059	218.14	-84.0213	40.6358	228.989	-84.623	70.5307	243.089	-54.4791	48.0262	
172	1.43333	239.531	-19.8126	56.8052	238.869	1.53212	37.8498	240.837	17.1407	12.4048	241.753	30.0669	-2.49443	220.995	-41.6052	-22.5834	213.963	-42.1667	-49.6695	206.081	-48.3486	-75.9745	209.201	-70.6532	-26.0544	199.864	-74.4551	-53.6561	186.817	-83.9635	-76.9012	187.051	-88.6383	-11.2747	166.843	-90.1299	-31.6228	140.512	-76.2534	-43.8547	173.038	-102.457	20.6667	153.217	-106.213	1.67044	134.266	-95.6524	-18.6308	217.47	-84.8004	39.3593	229.64	-83.2393	69.986	240.737	-58.0836	48.3295	
173	1.44167	238.31	-20.6767	58.1723	236.767	0.931188	38.0862	239.938	17.3661	13.2445	240.884	32.9612	-1.65681	220.062	-41.3003	-26.5834	212.833	-45.266	-48.6877	203.312	-52.1099	-74.4225	207.831	-73.4289	-26.1501	200.721	-74.7433	-52.1811	188.086	-83.0457	-79.7889	189.688	-89.6172	-10.4702	172.594	-91.2342	-35.2913	146.987	-87.7352	-52.9078	174.981	-103.294	19.196	162.415	-108.641	1.2909	145.989	-114.065	-21.7445	217.386	-83.3764	41.1532	230.971	-85.0669	71.5904	241.968	-53.4197	45.5408	
174	1.45	238.84	-19.2111	59.1948	236.089	1.77762	35.1769	236.715	16.0938	16.556	239.397	33.9875	0.934564	219.716	-42.2868	-26.7425	212.896	-43.7822	-49.4661	204.08	-51.7804	-76.5848	207.764	-73.8881	-24.6155	199.38	-75.4222	-49.1193	191.177	-80.4393	-79.7944	190.949	-90.8745	-10.872	172.932	-95.254	-38.625	152.79	-95.8989	-55.931	176.774	-103.747	16.2587	165.309	-112.11	2.11049	153.667	-122.436	-21.0989	219.513	-85.4887	38.933	228.624	-86.6752	72.2094	240.339	-55.3354	47.5821	
175	1.45833	238.021	-19.6597	57.6142	235.703	1.87349	35.18	237.932	16.814	13.4462	235.84	29.2871	0.99873	219.254	-43.8495	-24.5417	213.226	-45.675	-49.5087	206.077	-49.6233	-76.9827	208.477	-71.4526	-25.6728	199.05	-75.6493	-54.8799	187.278	-84.2425	-76.2826	188.916	-90.9195	-13.0678	174.262	-93.512	-37.7738	156.762	-93.4248	-53.8778	176.553	-106.454	14.2785	167.814	-113.539	-0.515108	160.66	-128.845	-16.312	218.027	-88.0086	41.681	228.476	-83.4973	72.227	240.905	-58.2239	45.5241	
